<svg xmlns="http://www.w3.org/2000/svg" viewBox="0 0 24 24" fill="none">
  <path fill="#3776AB" d="M11.94 1.012c-5.027 0-4.71 2.18-4.71 2.18l.005 2.26h4.794v.678H5.314S2.097 5.764 2.097 10.84c0 5.077 2.81 4.897 2.81 4.897h1.684v-2.357s-.09-2.81 2.766-2.81h4.755s2.675.043 2.675-2.587V3.624S17.193 1.012 11.94 1.012zM9.298 2.529a.86.86 0 0 1 .86.86.86.86 0 0 1-.86.86.86.86 0 0 1-.859-.86.86.86 0 0 1 .86-.86z"/>
  <path fill="#FFD43B" d="M12.06 22.988c5.026 0 4.71-2.18 4.71-2.18l-.006-2.26h-4.793v-.679h6.713s3.218.366 3.218-4.71c0-5.077-2.81-4.897-2.81-4.897H17.41V10.62s.09 2.81-2.766 2.81H9.889s-2.675-.043-2.675 2.587v4.357s-.406 2.613 4.847 2.613zm2.642-1.515a.86.86 0 0 1-.86-.86.86.86 0 0 1 .86-.86.86.86 0 0 1 .86.86.86.86 0 0 1-.86.86z"/>
</svg>
